<svg xmlns="http://www.w3.org/2000/svg" width="100%" height="100%" viewBox="0 0 800 800" preserveAspectRatio="xMidYMid slice">
  <defs>
    <!-- Brighter neon gradient stroke -->
    <linearGradient id="constellationStroke" x1="0" y1="0" x2="1" y2="1">
      <stop offset="0%" stop-color="rgba(0,200,255,0.45)" />
      <stop offset="50%" stop-color="rgba(120,0,255,0.35)" />
      <stop offset="100%" stop-color="rgba(255,0,150,0.45)" />
    </linearGradient>

    <!-- Glow for stars -->
    <radialGradient id="starGlow" r="1" cx="50%" cy="50%">
      <stop offset="0%" stop-color="rgba(255,255,255,0.95)" />
      <stop offset="100%" stop-color="rgba(120,0,255,0.4)" />
    </radialGradient>

    <!-- Animations -->
    <style>
      .star {
        animation: pulse 3s infinite ease-in-out;
        transform-origin: center;
      }
      .star:nth-child(odd) {
        animation-delay: 1.5s;
      }
      @keyframes pulse {
        0%, 100% { r: 3; opacity: 0.8; }
        50% { r: 6; opacity: 1; }
      }

      .line {
        animation: twinkle 8s ease-in-out infinite alternate;
      }
      @keyframes twinkle {
        0% { opacity: 0.25; }
        50% { opacity: 0.6; }
        100% { opacity: 0.3; }
      }
    </style>
  </defs>

  <!-- Constellation lines -->
  <g fill="none" stroke="url(#constellationStroke)" stroke-width="1.4" class="line">
    <path d="M769 229L1037 260.9M927 880L731 737 520 660 309 538 40 599 295 764 126.5 879.5 40 599-197 493 102 382-31 229 126.5 79.5-69-63"/>
    <path d="M-31 229L237 261 390 382 603 493 308.5 537.5 101.5 381.5M370 905L295 764"/>
    <path d="M520 660L578 842 731 737 840 599 603 493 520 660 295 764 309 538 390 382 539 269 769 229 577.5 41.5 370 105 295 -36 126.5 79.5 237 261 102 382 40 599 -69 737 127 880"/>
    <path d="M520-140L578.5 42.5 731-63M603 493L539 269 237 261 370 105M902 382L539 269M390 382L102 382"/>
    <path d="M-222 42L126.5 79.5 370 105 539 269 577.5 41.5 927 80 769 229 902 382 603 493 731 737M295-36L577.5 41.5M578 842L295 764M40-201L127 80M102 382L-261 269"/>
  </g>

  <!-- Stars -->
  <g fill="url(#starGlow)">
    <circle class="star" cx="769" cy="229" r="3"/>
    <circle class="star" cx="539" cy="269" r="3"/>
    <circle class="star" cx="603" cy="493" r="3"/>
    <circle class="star" cx="731" cy="737" r="3"/>
    <circle class="star" cx="520" cy="660" r="3"/>
    <circle class="star" cx="309" cy="538" r="3"/>
    <circle class="star" cx="295" cy="764" r="3"/>
    <circle class="star" cx="40" cy="599" r="3"/>
    <circle class="star" cx="102" cy="382" r="3"/>
    <circle class="star" cx="127" cy="80" r="3"/>
    <circle class="star" cx="370" cy="105" r="3"/>
    <circle class="star" cx="578" cy="42" r="3"/>
    <circle class="star" cx="237" cy="261" r="3"/>
    <circle class="star" cx="390" cy="382" r="3"/>
  </g>
</svg>
